<svg xmlns="http://www.w3.org/2000/svg" viewBox="0 0 100 100"><defs><linearGradient id="bg" x1="0" y1="0" x2="0" y2="1"><stop offset="0" stop-color="#1d2c4d"/><stop offset="1" stop-color="#0b1322"/></linearGradient></defs><rect width="100" height="100" rx="23" fill="url(#bg)"/><g transform="translate(50 50) scale(.82) translate(-50 -50)"><defs><linearGradient id="orb" x1="16" y1="20" x2="84" y2="80" gradientUnits="userSpaceOnUse"><stop offset="0" stop-color="#f2f8ff"/><stop offset=".5" stop-color="#a6ccff"/><stop offset="1" stop-color="#5a9bff"/></linearGradient><radialGradient id="nuc" cx=".42" cy=".4" r=".75"><stop offset="0" stop-color="#ffffff"/><stop offset=".4" stop-color="#d6ebff"/><stop offset="1" stop-color="#5a9bff"/></radialGradient><radialGradient id="halo" cx=".5" cy=".5" r=".5"><stop offset="0" stop-color="#8fc6ff" stop-opacity=".85"/><stop offset=".5" stop-color="#5a9bff" stop-opacity=".26"/><stop offset="1" stop-color="#5a9bff" stop-opacity="0"/></radialGradient><filter id="glow" x="-60%" y="-60%" width="220%" height="220%"><feGaussianBlur stdDeviation="1.8"/></filter></defs><circle cx="50" cy="50" r="24" fill="url(#halo)"/><g filter="url(#glow)" fill="none" stroke="#74b3ff" stroke-width="4.6" stroke-linecap="round" opacity=".45"><ellipse cx="50" cy="50" rx="34" ry="12.6" transform="rotate(36 50 50)"/><ellipse cx="50" cy="50" rx="34" ry="12.6" transform="rotate(-36 50 50)"/></g><g fill="none" stroke="url(#orb)" stroke-width="2.9" stroke-linecap="round"><ellipse cx="50" cy="50" rx="34" ry="12.6" transform="rotate(36 50 50)"/><ellipse cx="50" cy="50" rx="34" ry="12.6" transform="rotate(-36 50 50)"/></g><circle cx="50" cy="50" r="13" fill="url(#nuc)" filter="url(#glow)" opacity=".75"/><circle cx="50" cy="50" r="5.6" fill="url(#nuc)"/><circle cx="48.7" cy="48.3" r="2" fill="#ffffff"/><circle cx="43" cy="31" r="3.5" fill="#f6fbff"/><circle cx="76.5" cy="59" r="2.9" fill="#dcecff"/></g></svg>